<svg xmlns:dc="http://purl.org/dc/elements/1.1/" xmlns:cc="http://creativecommons.org/ns#" xmlns:rdf="http://www.w3.org/1999/02/22-rdf-syntax-ns#" xmlns:svg="http://www.w3.org/2000/svg" xmlns="http://www.w3.org/2000/svg" xmlns:sodipodi="http://sodipodi.sourceforge.net/DTD/sodipodi-0.dtd" xmlns:inkscape="http://www.inkscape.org/namespaces/inkscape" version="1.1" viewBox="0 0 26.458333 33.0729175" x="0px" y="0px"><g transform="translate(0,-270.54165)"><g transform="translate(0.00336753,0.64089223)"><path transform="matrix(0.26458333,0,0,0.26458333,-0.00336753,269.90076)" d="M 10.501953,3.6152344 9.9785156,4.6425781 c 0,0 -0.1616254,0.3222336 -0.3457031,0.8964844 C 9.5407002,5.825896 9.4436151,6.1757713 9.3574219,6.5800781 9.2349442,7.1553473 9.1385326,7.8442564 9.1132812,8.6132812 c -0.00133,0.040818 -0.00495,0.077852 -0.00586,0.1191407 -1.5e-5,6.744e-4 1.49e-5,0.00128 0,0.00195 -0.00594,0.2710398 -0.00301,0.5536602 0.011719,0.84375 1.021e-4,0.00202 -1.032e-4,0.00384 0,0.00586 0.014886,0.2903392 0.042192,0.5892471 0.082031,0.8964851 0.080008,0.618327 0.2150814,1.267944 0.421875,1.941406 0.1033981,0.336735 0.22562,0.680123 0.3671875,1.027344 0.2823013,0.692397 0.6437473,1.402047 1.1035153,2.123047 v 0.002 c 0.0019,0.0033 0.0059,0.0084 0.0078,0.01172 0.0021,0.0033 0.0037,0.0065 0.0059,0.0098 l 0.177734,0.28125 0.01172,-0.002 c 0.225261,0.335814 0.517787,0.724811 0.931641,1.216797 0.534902,0.636805 1.224143,1.404712 2.05664,2.310547 1.662434,1.808882 3.871672,4.108721 6.439453,6.726562 5.135562,5.235682 11.705084,11.738882 18.183594,18.083984 12.95702,12.690204 25.548828,24.748047 25.548828,24.748047 l 3.857422,3.857422 -2.375,2.373047 c -0.344239,0.344314 -0.344164,0.925253 0,1.269531 l 0.945313,0.943359 c 0.344239,0.344315 0.92528,0.344315 1.269531,0 l 2.373047,-2.373047 0.808594,0.808594 0.355468,0.353516 0.353516,0.355468 15.207031,15.207032 1.537109,1.537109 c 0.46948,0.469403 1.247348,0.469449 1.716797,0 l 2.847657,-2.847656 c 0.469519,-0.469454 0.469519,-1.247342 0,-1.716797 L 91.8125,87.1875 91.8145,87.1855 85.679735,81.054641 75.093797,70.46675 77.47075,68.089797 c 0.344353,-0.344315 0.344202,-0.919395 0,-1.263672 l -0.951172,-0.94336 c -0.344239,-0.344314 -0.919417,-0.344314 -1.263672,0 l -2.375,2.373047 -3.65039,-3.652343 0.002,-0.0098 L 69.004,64.376872 c -0.0017,-0.0016 -0.0042,-0.0042 -0.0059,-0.0059 l -0.564453,-0.564453 -0.0059,0.01758 C 56.159123,52.171081 27.176414,23.218141 10.861328,4.6113281 Z m 0,2.9316406 2.865235,7.927734 -1.5,0.273438 C 9.5141621,10.816998 10.009024,8.0201726 10.501953,6.546875 Z m 1.263672,0.5664062 C 28.514881,25.973636 56.371249,53.775449 68.089844,64.878906 L 67.884766,65.521484 67.496094,66.736328 14.462891,14.583984 Z M 13.869141,15.404297 66.783203,67.4375 65.865234,67.732422 64.935547,68.03125 C 64.727889,67.832372 52.451132,56.077276 39.607422,43.498047 33.131485,37.155464 26.564374,30.654559 21.4375,25.427734 18.874063,22.814322 16.671112,20.519558 15.021484,18.724609 13.638322,17.2196 12.918579,16.309747 12.455078,15.664062 Z m 55.017578,50.269531 3.285156,3.28711 -3.150391,3.15039 -3.285156,-3.285156 2.140625,-0.6875 0.246094,-0.07813 z m 6.998047,0.990234 0.802734,0.796876 -2.300781,2.298828 -0.353516,0.353515 -4.212891,4.210938 -2.300781,2.298828 -0.796875,-0.796875 2.298828,-2.300781 4.564454,-4.564453 z m -1.498047,4.509766 0.808593,0.808594 -3.152343,3.15039 L 71.234375,74.324219 72.808594,72.75 Z m 1.515625,1.517578 1.371094,1.371094 -2.363282,0.789062 -0.08203,0.236329 -0.707031,2.11914 -1.367188,-1.367187 z m 1.951172,1.951172 1.634765,1.634766 -2.365234,0.789062 -0.07227,0.236328 -0.708984,2.125 -1.640625,-1.640625 2.363281,-0.78125 z m -1.291016,0.703125 -0.287109,0.871094 -0.857422,0.28125 0.289062,-0.865235 z m 3.505859,1.511719 1.642579,1.642578 -2.365235,0.787109 -0.08008,0.236329 -0.707031,2.121093 -1.636719,-1.636719 2.365234,-0.787109 z m -1.283203,0.716797 -0.289062,0.857422 -0.871094,0.287109 0.289062,-0.863281 z m 3.503906,1.503906 1.634766,1.634766 -2.363281,0.789062 -0.07422,0.236328 -0.707031,2.126953 -1.640625,-1.640625 2.363281,-0.78125 z M 81,79.78125 l -0.289062,0.871094 -0.855469,0.28125 0.287109,-0.863282 z m 3.505859,1.513672 1.640625,1.640625 -2.363281,0.789062 -0.08203,0.236329 -0.707031,2.11914 -1.634766,-1.634766 2.363281,-0.787109 z m -1.285156,0.716797 -0.287109,0.855469 -0.871094,0.289062 0.287109,-0.863281 z m 3.505859,1.503906 1.638672,1.638672 -2.36914,0.785156 -0.07227,0.234375 -0.708984,2.126953 -1.640625,-1.640625 2.363281,-0.78125 z m -1.291015,0.703125 -0.287109,0.871094 -0.857422,0.279297 0.289062,-0.863282 z m 3.507812,1.513672 0.832032,0.832031 0.621093,0.621094 -3.144531,3.152344 -1.455078,-1.455079 2.363281,-0.789062 z m -1.285156,0.714844 -0.289062,0.857422 -0.871094,0.287109 0.289062,-0.863281 z m 3.447266,1.447265 1.541015,1.541016 c 0.08993,0.08991 0.08993,0.21282 0,0.302734 l -2.847656,2.847657 c -0.08992,0.08992 -0.212752,0.08997 -0.302734,0 l -1.53711,-1.53711 z" style="color:#000000;font-style:normal;font-variant:normal;font-weight:normal;font-stretch:normal;font-size:medium;line-height:normal;font-family:sans-serif;font-variant-ligatures:normal;font-variant-position:normal;font-variant-caps:normal;font-variant-numeric:normal;font-variant-alternates:normal;font-variant-east-asian:normal;font-feature-settings:normal;font-variation-settings:normal;text-indent:0;text-align:start;text-decoration:none;text-decoration-line:none;text-decoration-style:solid;text-decoration-color:#000000;letter-spacing:normal;word-spacing:normal;text-transform:none;writing-mode:lr-tb;direction:ltr;text-orientation:mixed;dominant-baseline:auto;baseline-shift:baseline;text-anchor:start;white-space:normal;shape-padding:0;shape-margin:0;inline-size:0;clip-rule:nonzero;display:inline;overflow:visible;visibility:visible;opacity:1;isolation:auto;mix-blend-mode:normal;color-interpolation:sRGB;color-interpolation-filters:linearRGB;solid-color:#000000;solid-opacity:1;vector-effect:none;fill:#000000;fill-opacity:1;fill-rule:evenodd;stroke:none;stroke-width:0.999999;stroke-linecap:square;stroke-linejoin:miter;stroke-miterlimit:4;stroke-dasharray:none;stroke-dashoffset:0;stroke-opacity:1;color-rendering:auto;image-rendering:auto;shape-rendering:auto;text-rendering:auto;enable-background:accumulate;stop-color:#000000;stop-opacity:1"/></g></g><text x="0" y="41.458334" fill="#000000" font-size="5px" font-weight="bold" font-family="'Helvetica Neue', Helvetica, Arial-Unicode, Arial, Sans-serif">Created by Ahmad Arzaha</text><text x="0" y="46.458334" fill="#000000" font-size="5px" font-weight="bold" font-family="'Helvetica Neue', Helvetica, Arial-Unicode, Arial, Sans-serif">from the Noun Project</text></svg>